<?xml version="1.0" standalone="no"?>
<!DOCTYPE svg PUBLIC "-//W3C//DTD SVG 20010904//EN"
 "http://www.w3.org/TR/2001/REC-SVG-20010904/DTD/svg10.dtd">
<svg version="1.0" xmlns="http://www.w3.org/2000/svg"
 width="300.000000pt" height="300.000000pt" viewBox="0 0 300.000000 300.000000"
 preserveAspectRatio="xMidYMid meet">
<metadata>
Created by potrace 1.14, written by Peter Selinger 2001-2017
</metadata>
<g transform="translate(0.000000,300.000000) scale(0.100000,-0.100000)"
fill="#000000" stroke="none">
<path d="M1349 2996 c-2 -2 -29 -7 -59 -10 -539 -64 -1036 -473 -1210 -997
-28 -82 -42 -141 -65 -259 -11 -56 -13 -341 -4 -406 5 -32 11 -70 13 -84 14
-93 64 -245 117 -360 35 -74 122 -225 138 -240 4 -3 26 -31 50 -62 66 -88 218
-228 322 -298 174 -116 337 -184 552 -232 147 -32 425 -32 577 1 204 44 373
115 543 227 118 79 279 234 371 357 94 127 218 389 239 507 3 14 10 43 15 65
18 69 24 125 27 280 3 162 -6 255 -36 370 -6 22 -12 47 -14 55 -8 42 -51 155
-91 240 -138 292 -390 548 -684 694 -118 59 -282 114 -390 131 -25 4 -54 9
-65 12 -25 6 -341 14 -346 9z"/>
</g>
</svg>
